<?xml version="1.0" encoding="iso-8859-1"?>
<!-- Generator: Adobe Illustrator 19.0.0, SVG Export Plug-In . SVG Version: 6.00 Build 0)  -->
<svg version="1.1" id="Capa_1" xmlns="http://www.w3.org/2000/svg" xmlns:xlink="http://www.w3.org/1999/xlink" x="0px" y="0px"
	 viewBox="0 0 512.002 512.002" style="enable-background:new 0 0 512.002 512.002;" xml:space="preserve">
<g>
	<g>
		<path d="M402.002,292c-13.428,0-26.299,2.423-38.206,6.847C369.086,285.585,372,271.127,372,256
			c0-15.126-2.914-29.584-8.204-42.846C375.702,217.578,388.573,220,402,220c60.654,0,110-49.346,110-110S462.654,0,402,0
			S292,49.346,292,110c0,13.427,2.422,26.298,6.846,38.204C285.584,142.914,271.126,140,256,140c-15.142,0-29.614,2.92-42.887,8.221
			c14.431-39.061,5.99-84.73-25.333-116.055c-42.889-42.889-112.675-42.887-155.563,0c-42.889,42.89-42.889,112.675,0,155.564
			c21.444,21.444,49.613,32.166,77.782,32.166c12.965,0,25.928-2.278,38.238-6.821C142.926,226.359,140,240.844,140,256
			c0,15.127,2.914,29.586,8.205,42.848c-11.906-4.424-24.777-6.846-38.205-6.846c-60.654,0-110,49.346-110,110s49.346,110,110,110
			s110-49.346,110-110c0-13.428-2.423-26.3-6.847-38.206C226.415,369.086,240.873,372,256,372s29.586-2.914,42.848-8.205
			c-4.424,11.906-6.846,24.777-6.846,38.205c0,60.654,49.346,110,110,110s110-49.346,110-110S462.656,292,402.002,292z M402.002,312
			c21.377,0,41.033,7.497,56.489,19.992l-40.186,40.186c-4.284-2.357-9.127-3.813-14.276-4.122l-44.838-45.206
			C371.93,315.933,386.515,312,402.002,312z M415.973,401.988c0,7.72-6.28,14-14,14c-3.173,0-6.092-1.072-8.442-2.858
			c0,0-2.035-1.805-2.407-2.308c-1.841-2.491-3.151-5.487-3.151-8.834c0-7.72,6.28-14,14-14
			C409.693,387.988,415.973,394.268,415.973,401.988z M382.146,374.393c-2.983,2.15-5.604,4.768-7.755,7.75l-39.907-39.582
			c2.52-2.859,5.218-5.557,8.077-8.077L382.146,374.393z M402,200c-15.477,0-30.053-3.927-42.785-10.837l44.845-45.203
			c5.003-0.302,9.718-1.689,13.91-3.932l40.22,40.22C442.78,192.6,423.24,200,402,200z M342.58,177.535
			c-2.857-2.517-5.553-5.211-8.072-8.066l39.903-39.588c2.152,2.982,4.774,5.6,7.758,7.749L342.58,177.535z M387.988,110.029
			c0-3.69,1.446-7.042,3.787-9.545c0.14-0.125,0.284-0.243,0.417-0.377c0.113-0.114,0.212-0.236,0.319-0.353
			c2.496-2.304,5.819-3.725,9.477-3.725c7.72,0,14,6.28,14,14c0,7.72-6.28,14-14,14
			C394.268,124.029,387.988,117.749,387.988,110.029z M402,20c49.626,0,90,40.374,90,90c0,21.196-7.37,40.701-19.676,56.097
			l-40.252-40.252c2.496-4.728,3.916-10.108,3.916-15.816c0-18.748-15.252-34-34-34c-5.708,0-11.088,1.42-15.815,3.916
			l-40.27-40.269C361.299,27.37,380.804,20,402,20z M331.752,53.809l40.238,40.238c-2.252,4.209-3.642,8.944-3.937,13.969
			l-45.185,44.828C315.939,140.097,312,125.5,312,110C312,88.76,319.4,69.219,331.752,53.809z M189.131,152.795l-45.164-44.807
			c-0.271-4.838-1.554-9.483-3.743-13.696l40.269-40.269C203.118,82.503,205.998,121.607,189.131,152.795z M177.509,169.436
			c-1.245,1.411-2.523,2.802-3.872,4.151c-1.365,1.365-2.774,2.658-4.203,3.917l-39.608-39.929c1.493-1.075,2.915-2.271,4.241-3.598
			c1.297-1.297,2.47-2.683,3.526-4.14L177.509,169.436z M46.358,46.308C63.903,28.762,86.95,19.99,109.997,19.99
			c20.004,0,40.002,6.619,56.408,19.836L126.21,80.021c-4.912-2.666-10.438-4.085-16.184-4.085c-9.081,0-17.619,3.536-24.04,9.958
			c-6.423,6.422-9.96,14.96-9.96,24.042c0,5.745,1.42,11.271,4.086,16.183l-40.236,40.237
			C11.43,131.047,13.583,79.082,46.358,46.308z M119.926,119.835c-2.645,2.644-6.159,4.101-9.899,4.101
			c-3.508,0-6.921-1.302-9.405-3.792c-1.067-1.07-2.113-2.109-2.854-3.444c-1.696-3.056-2.211-6.7-1.291-10.37
			c0.31-1.236,0.805-2.427,1.469-3.514c3.665-6.004,10.762-8.463,17.579-5.833c1.55,0.598,2.925,1.576,4.099,2.75
			c2.401,2.401,4.042,5.523,4.344,8.905C124.345,112.855,122.874,116.885,119.926,119.835z M54.074,180.444l40.31-40.31
			c4.158,2.161,8.738,3.435,13.507,3.729l44.891,45.254C121.605,205.945,82.533,203.054,54.074,180.444z M110,312.002
			c15.501,0,30.099,3.939,42.846,10.869l-44.815,45.164c-5.058,0.292-9.822,1.693-14.053,3.966l-40.212-40.212
			C69.183,319.417,88.74,312.002,110,312.002z M169.472,334.513c2.852,2.516,5.544,5.21,8.059,8.064l-39.911,39.588
			c-2.144-2.98-4.755-5.599-7.729-7.75L169.472,334.513z M124.011,401.973c0,7.72-6.28,14-14,14c-7.72,0-14-6.28-14-14
			c0.001-3.559,1.346-6.801,3.541-9.274c0.174-0.152,0.897-0.875,1.076-1.086c2.486-2.254,5.771-3.64,9.383-3.64
			C117.731,387.973,124.011,394.253,124.011,401.973z M110,492.002c-49.626,0-90-40.374-90-90c0-21.176,7.355-40.664,19.641-56.053
			l40.26,40.26c-2.479,4.715-3.889,10.076-3.889,15.763c0,18.748,15.252,34,34,34c5.687,0,11.048-1.41,15.763-3.889l40.278,40.278
			C150.664,484.646,131.177,492.002,110,492.002z M180.213,458.236l-40.229-40.229c2.253-4.195,3.648-8.915,3.956-13.924
			l45.221-44.871c6.911,12.734,10.839,27.312,10.839,42.79C200,423.262,192.585,442.819,180.213,458.236z M256,352
			c-52.935,0-96-43.065-96-96s43.065-96,96-96s96,43.065,96,96S308.935,352,256,352z M312.002,401.999
			c0-15.485,3.932-30.069,10.849-42.808l45.187,44.819c0.304,5.162,1.763,10.017,4.125,14.31l-40.169,40.168
			C319.498,443.032,312.002,423.376,312.002,401.999z M402.002,492c-21.059,0-40.45-7.273-55.798-19.436l40.31-40.309
			c4.642,2.381,9.894,3.733,15.459,3.733c18.748,0,34-15.252,34-34c0-5.565-1.353-10.818-3.733-15.459l40.327-40.327
			c12.163,15.349,19.436,34.739,19.436,55.798C492.002,451.626,451.628,492,402.002,492z"/>
	</g>
</g>
<g>
	<g>
		<path d="M192.321,245.938c-5.522,0-10,4.478-10,10v0.129c0,5.522,4.478,10,10,10c5.522,0,10-4.478,10-10v-0.129
			C202.321,250.415,197.844,245.938,192.321,245.938z"/>
	</g>
</g>
<g>
	<g>
		<path d="M291.935,191.828l0.268-0.686c2.007-5.145-0.537-10.943-5.683-12.95c-5.147-2.011-10.944,0.537-12.95,5.683l-0.244,0.625
			c-5.569-1.351-11.376-2.084-17.354-2.084c-26.21,0-50.653,14.107-63.791,36.816c-2.766,4.781-1.132,10.898,3.648,13.664
			c4.781,2.766,10.898,1.131,13.664-3.648c9.574-16.551,27.384-26.832,46.479-26.832c3.417,0,6.755,0.335,9.996,0.948
			l-11.356,29.112c-0.708,0.041-1.418,0.101-2.131,0.205c-10.386,1.513-18.381,9.507-19.894,19.893
			c-1.23,8.452,1.998,16.665,8.638,21.969c4.263,3.404,9.424,5.162,14.733,5.162c2.989,0,6.026-0.558,8.975-1.692
			c5.958-2.294,10.691-7.027,12.985-12.985c0-0.001,0.001-0.002,0.001-0.002c3.148-8.182,1.851-17.044-3.471-23.706
			c-0.401-0.502-0.824-0.978-1.257-1.44l11.379-29.172c15.039,9.515,25.052,26.285,25.052,45.359c0,5.522,4.478,10,10,10
			c5.522,0,10.001-4.478,10.001-10.001C329.623,228.51,314.402,204.456,291.935,191.828z"/>
	</g>
</g>
<g>
	<g>
		<path d="M271.05,304.001h-30.1c-5.522,0-10,4.478-10,10c0,5.522,4.478,10,10,10h30.1c5.522,0,10-4.478,10-10
			C281.05,308.479,276.572,304.001,271.05,304.001z"/>
	</g>
</g>
<g>
</g>
<g>
</g>
<g>
</g>
<g>
</g>
<g>
</g>
<g>
</g>
<g>
</g>
<g>
</g>
<g>
</g>
<g>
</g>
<g>
</g>
<g>
</g>
<g>
</g>
<g>
</g>
<g>
</g>
</svg>
