<?xml version="1.0" encoding="utf-8"?>
<!-- Generator: Adobe Illustrator 18.0.0, SVG Export Plug-In . SVG Version: 6.00 Build 0)  -->
<!DOCTYPE svg PUBLIC "-//W3C//DTD SVG 1.1//EN" "http://www.w3.org/Graphics/SVG/1.1/DTD/svg11.dtd">
<svg version="1.1" id="Layer_1" xmlns="http://www.w3.org/2000/svg" xmlns:xlink="http://www.w3.org/1999/xlink" x="0px" y="0px"
	 viewBox="0 0 97.3 46.8" enable-background="new 0 0 97.3 46.8" xml:space="preserve">
<g>
	
		<radialGradient id="SVGID_1_" cx="33.4157" cy="49683.5859" r="30.8641" gradientTransform="matrix(1 0 0 0.1419 0 -7013.0366)" gradientUnits="userSpaceOnUse">
		<stop  offset="0" style="stop-color:#C0BFBF"/>
		<stop  offset="4.587770e-002" style="stop-color:#C4C3C2"/>
		<stop  offset="0.4427" style="stop-color:#E1E0DF"/>
		<stop  offset="0.7749" style="stop-color:#F5F4F3"/>
		<stop  offset="1" style="stop-color:#FFFFFF"/>
	</radialGradient>
	<ellipse fill="url(#SVGID_1_)" cx="33.4" cy="37.1" rx="30.2" ry="4.5"/>
	
		<radialGradient id="SVGID_2_" cx="64.0084" cy="49683.5859" r="30.8641" gradientTransform="matrix(1 0 0 0.1419 0 -7013.0366)" gradientUnits="userSpaceOnUse">
		<stop  offset="0" style="stop-color:#C0BFBF"/>
		<stop  offset="4.587770e-002" style="stop-color:#C4C3C2"/>
		<stop  offset="0.4427" style="stop-color:#E1E0DF"/>
		<stop  offset="0.7749" style="stop-color:#F5F4F3"/>
		<stop  offset="1" style="stop-color:#FFFFFF"/>
	</radialGradient>
	<ellipse fill="url(#SVGID_2_)" cx="64" cy="37.1" rx="30.2" ry="4.5"/>
	<g>
		<g>
			<path fill="#696979" d="M80.9,21.8c0-1.4-1.5-2.5-3.3-2.5H21.2c-1.8,0-3.3,1.1-3.3,2.5v0.4h63V21.8z"/>
			<path fill="#50505C" d="M17.9,22.1v0.4c0,1.4,1.5,2.5,3.3,2.5h56.5c1.8,0,3.3-1.1,3.3-2.5v-0.4H17.9z"/>
		</g>
		<path fill="#069CC5" d="M26.7,34.8h-2.2c-1.2,0-2.2-1-2.2-2.2V11.7c0-1.2,1-2.2,2.2-2.2h2.2c1.2,0,2.2,1,2.2,2.2v20.8
			C28.9,33.7,27.9,34.8,26.7,34.8z"/>
		<path fill="#069CC5" d="M71.7,34.8H74c1.2,0,2.2-1,2.2-2.2V11.7c0-1.2-1-2.2-2.2-2.2h-2.2c-1.2,0-2.2,1-2.2,2.2v20.8
			C69.5,33.7,70.5,34.8,71.7,34.8z"/>
		<g>
			<path fill="#EF4436" d="M31.2,6.1c-1.2,0-2.2,1-2.2,2.2V36c0,1.2,1,2.2,2.2,2.2h2V6.1H31.2z"/>
			<path fill="#C63532" d="M35.2,6.1h-2v32.1h2c1.2,0,2.2-1,2.2-2.2V8.3C37.5,7.1,36.5,6.1,35.2,6.1z"/>
		</g>
		<g>
			<path fill="#EF4436" d="M63.2,6.1c-1.2,0-2.2,1-2.2,2.2V36c0,1.2,1,2.2,2.2,2.2h2V6.1H63.2z"/>
			<path fill="#C63532" d="M67.3,6.1h-2v32.1h2c1.2,0,2.2-1,2.2-2.2V8.3C69.5,7.1,68.5,6.1,67.3,6.1z"/>
		</g>
	</g>
</g>
</svg>
