<?xml version="1.0" encoding="utf-8"?>
<!-- Generator: Adobe Illustrator 18.0.0, SVG Export Plug-In . SVG Version: 6.00 Build 0)  -->
<!DOCTYPE svg PUBLIC "-//W3C//DTD SVG 1.1//EN" "http://www.w3.org/Graphics/SVG/1.1/DTD/svg11.dtd">
<svg version="1.1" id="Layer_1" xmlns="http://www.w3.org/2000/svg" xmlns:xlink="http://www.w3.org/1999/xlink" x="0px" y="0px"
	 viewBox="0 0 83 67.3" enable-background="new 0 0 83 67.3" xml:space="preserve">
<g>
	
		<radialGradient id="SVGID_1_" cx="41.7571" cy="49739.4063" r="36.3703" gradientTransform="matrix(1 0 0 0.1419 0 -6999.8013)" gradientUnits="userSpaceOnUse">
		<stop  offset="0" style="stop-color:#C0BFBF"/>
		<stop  offset="4.587770e-002" style="stop-color:#C4C3C2"/>
		<stop  offset="0.4427" style="stop-color:#E1E0DF"/>
		<stop  offset="0.7749" style="stop-color:#F5F4F3"/>
		<stop  offset="1" style="stop-color:#FFFFFF"/>
	</radialGradient>
	<ellipse fill="url(#SVGID_1_)" cx="41.8" cy="58.2" rx="35.5" ry="5.3"/>
	<g>
		<path fill="#3E3E3E" d="M64.4,43.6c0,9.9-10,13.6-22.4,13.6c-12.4,0-22.4-3.7-22.4-13.6c0-9.9,10-17.8,22.4-17.8
			C54.4,25.8,64.4,33.7,64.4,43.6z"/>
		<path fill="#272626" d="M42,54.8c-11.8,0-21.5-3.4-22.3-12.4c0,0.4-0.1,0.8-0.1,1.2c0,9.9,10,16,22.4,16c12.4,0,22.4-6.1,22.4-16
			c0-0.4,0-0.8-0.1-1.2C63.6,51.4,53.9,54.8,42,54.8z"/>
		<path fill="#3E3E3E" d="M49.1,31.7c0,0,0.1-0.2,0.3-0.7c0.2-0.5,0.5-1.2,0.8-2.1c0.6-1.8,1.6-4.5,2.3-7.6c0.2-0.8,0.3-1.6,0.5-2.4
			c0.1-0.8,0.2-1.6,0.2-2.1c0-0.3-0.1-0.4,0.1-0.1c0.1,0.2,0,0-0.1-0.1L53,16.2l-0.3-0.6c-0.4-0.7-0.8-1.3-1.2-1.8
			c-0.9-1-2.1-1.8-3.8-2.4c-1.7-0.5-3.6-0.7-5.7-0.8l-1.6,0.1c-0.6,0-0.9,0.1-1.4,0.1c-0.4,0-0.9,0.2-1.4,0.2
			c-0.5,0.1-0.9,0.2-1.3,0.3c-1.7,0.5-3,1.3-3.9,2.3c-0.5,0.5-0.8,1.1-1.2,1.8L31,16.1l-0.1,0.3l-0.1,0.2l0,0l0,0
			c0.1-0.1-0.1,0.3,0.1-0.3l0,0.1c0,0.1-0.1,0.3,0,0.1c0-0.1,0-0.1,0.1-0.2l0-0.1l0,0c0,0,0,0.1,0,0.1l0,0.2c0,0.6,0.1,1.4,0.2,2.2
			c0.1,0.8,0.3,1.6,0.5,2.4c0.7,3.2,1.6,5.8,2.2,7.7c0.3,0.9,0.6,1.6,0.8,2.1c0.2,0.5,0.3,0.7,0.3,0.7l-9.6,2.8c0,0-0.2-1.2-0.6-3.3
			c-0.4-2.1-0.9-5-1.5-8.6c-0.1-0.9-0.2-1.9-0.3-2.9c-0.1-1.1-0.2-2.1-0.1-3.6l0-0.6l0.1-0.6l0-0.2l0.1-0.3c0-0.2,0.1-0.4,0.1-0.5
			c0.1-0.5,0.2-0.4,0.2-0.6l0-0.1l0.1-0.3l0,0l0,0l0.1-0.2l0.2-0.4c0.1-0.3,0.3-0.5,0.4-0.8c0.6-1.1,1.4-2.3,2.5-3.4
			c2-2.2,4.8-3.6,7.5-4.4c0.7-0.2,1.3-0.4,2-0.5c0.7-0.1,1.3-0.2,2-0.3c0.7-0.1,1.4-0.1,2-0.2L42,3c2.6,0,5.2,0.2,7.9,1
			c2.7,0.8,5.4,2.2,7.5,4.4c1,1.1,1.8,2.3,2.5,3.3l0.4,0.8l0.2,0.3c0.1,0.1,0.1,0.1,0.3,0.5c0.6,1.3,0.6,2.1,0.7,2.9
			c0.1,1.5,0.1,2.6,0,3.6c-0.1,1.1-0.2,2-0.3,3c-0.5,3.7-1.1,6.6-1.5,8.7c-0.4,2.1-0.7,3.3-0.7,3.3L49.1,31.7z"/>
		<g>
			<path fill="#BDBDBD" d="M41.4,43.6c0,1.8-1.5,2.9-3.7,2.9c-1.5,0-2.6-0.5-3.3-1.4l1.1-1.4c0.5,0.6,1.2,1,2.2,1
				c1.2,0,1.8-0.5,1.8-1.4c0-1-0.7-1.6-2.1-1.6h-0.4v-1.4h0.4c1.2,0,1.9-0.6,1.9-1.4c0-0.8-0.6-1.2-1.4-1.2c-0.9,0-1.6,0.4-2,1.2
				l-1.2-1.4c0.6-0.9,2-1.5,3.5-1.5c1.9,0,3.3,1,3.3,2.5c0,1.1-0.7,2.1-1.8,2.3C40.6,41.3,41.4,42.3,41.4,43.6z"/>
			<path fill="#BDBDBD" d="M42.5,44.5c0-1.7,0.5-2.7,2.3-3.7c1.6-0.9,2.4-1.2,2.4-1.9c0-0.6-0.5-1-1.3-1c-0.9,0-1.5,0.5-2,1.1
				l-1.2-1.4c0.5-0.5,1.9-1.4,3.6-1.4c2,0,3.1,1,3.1,2.4c0,1.4-1.1,2-1.9,2.5c-0.7,0.4-1.7,0.9-2,1.7h4.1v1.7H42.5z"/>
		</g>
		<path fill="#161616" d="M42.1,27.6c0,0-5.6-0.1-10.8,2.4c-5.8,2.8-11,8.4-7.6,16.1c1,2.2,4,5.5,8.9,6.3c0.9,0.1,2.4-0.3,2.6-1.2
			c0.3-1.4-2.8-2.1-3.4-6.6C31,38.2,33,29.8,42.1,27.6z"/>
		<path fill="#D9D9D8" d="M62,35.8c-0.4-0.8-1.1-1.7-2-2.7c0.6,1.6,0.9,3.4,0.9,5.2c0,8.9-7.4,16.3-16.3,16.3c-0.2,0-0.4,0-0.6,0
			c-0.2,0-0.3,0.1-0.4,0.1c0,0,7.4-0.1,12.7-2.4C63.7,49.2,66.8,44.4,62,35.8z"/>
	</g>
</g>
</svg>
