<?xml version="1.0" encoding="iso-8859-1"?>
<!-- Generator: Adobe Illustrator 21.1.0, SVG Export Plug-In . SVG Version: 6.00 Build 0)  -->
<svg version="1.1" id="Layer_1" xmlns="http://www.w3.org/2000/svg" xmlns:xlink="http://www.w3.org/1999/xlink" x="0px" y="0px"
	 viewBox="0 0 114 102" style="enable-background:new 0 0 114 102;" xml:space="preserve">
<g>
	<g>
		<g>
			<g>
				<g>
					<g>
						<g>
							<g>
								<g>
									<polygon style="fill:none;" points="40.688,51.766 40.677,51.766 40.677,51.771 40.676,51.766 40.677,51.772 
										40.677,51.848 40.688,51.848 40.688,51.845 40.69,51.848 40.688,51.837 									"/>
								</g>
							</g>
						</g>
					</g>
				</g>
			</g>
			<g>
				<polygon style="fill:none;" points="40.836,51.832 40.824,51.832 40.824,51.837 40.823,51.832 40.824,51.838 40.824,51.914 
					40.836,51.914 40.836,51.911 40.838,51.914 40.836,51.903 				"/>
			</g>
		</g>
	</g>
	<linearGradient id="SVGID_1_" gradientUnits="userSpaceOnUse" x1="80.5807" y1="103.0529" x2="75.0384" y2="51.0409">
		<stop  offset="0" style="stop-color:#000000;stop-opacity:0"/>
		<stop  offset="1" style="stop-color:#000000"/>
	</linearGradient>
	<polygon style="opacity:0.2;fill:url(#SVGID_1_);" points="47.938,64.212 106,98.5 108.445,97.059 51.235,62.868 	"/>
	<g>
		<g>
			<path style="fill:#91918B;" d="M49.69,53.084c-0.707,0.707-0.707,0.707-1.414,1.414c-1.563,1.562-1.563,4.095,0,5.657
				c0.171,0.171,0.358,0.316,0.55,0.45c-1.086-1.56-0.94-3.716,0.45-5.106c0.707-0.707,0.707-0.707,1.414-1.414
				c0.781-0.781,0.781-2.047,0-2.829c-0.177-0.177-0.38-0.308-0.596-0.404C50.426,51.587,50.295,52.48,49.69,53.084z"/>
			<path style="fill:#BABAB4;" d="M54.933,61.155c1.415-1.414,32.527-32.527,33.234-33.234c0.604-0.604,1.497-0.735,2.233-0.405
				c-0.097-0.215-0.229-0.418-0.405-0.595c-0.78-0.781-2.047-0.781-2.828,0c-0.707,0.707-31.819,31.82-33.234,33.234
				c-1.391,1.391-3.547,1.536-5.106,0.45c0.134,0.192,0.278,0.379,0.45,0.55C50.838,62.717,53.371,62.717,54.933,61.155z"/>
			<path style="fill:#A6A69F;" d="M56.762,62.984c1.414-1.414,32.526-32.527,33.233-33.234c0.604-0.604,0.735-1.498,0.405-2.233
				c-0.736-0.331-1.629-0.2-2.233,0.405L55.916,60.172c-1.164,1.164-2.747,1.855-4.394,1.814c-1.568-0.039-2.205-0.677-2.696-1.381
				c-0.704-0.491-1.341-1.126-1.382-2.693c-0.043-1.644,0.646-3.226,1.809-4.39l0.438-0.438c0.604-0.604,0.735-1.498,0.404-2.233
				c-0.735-0.331-1.629-0.2-2.232,0.404c-0.707,0.707,0,0-1.414,1.414c-1.518,1.518-2.297,3.492-2.34,5.48
				c-0.084,3.95,3.223,7.257,7.173,7.173C53.269,65.28,55.244,64.501,56.762,62.984z"/>
		</g>
		<g>
			<path style="fill:#E58F70;" d="M91.48,21.54c-1.64-1.432-3.732-2.811-4.983-3.486c-0.859-0.464-2.03-1.036-2.92-1.438
				c-0.523-0.237-1.237-0.519-1.785-0.692c-0.366-0.116-0.839-0.212-1.252-0.351c1.082,0.472,5.557,2.928,8.429,12.101l4.391-4.391
				C92.555,22.479,91.889,21.896,91.48,21.54z"/>
			<path style="fill:#DD7C5E;" d="M100.894,35.386c-0.115-0.361-0.547-1.662-1.292-3.257c-1.911-4.091-4.432-7.035-6.242-8.846
				l-4.391,4.391c0.007,0.023,0.015,0.042,0.021,0.064c8.988,2.797,11.552,7.123,12.116,8.348
				C101.009,35.756,100.929,35.499,100.894,35.386z"/>
		</g>
		<g>
			<g>
				<path style="fill:none;" d="M80.306,15.481c0.077,0.032,0.151,0.065,0.234,0.093C80.394,15.509,80.316,15.483,80.306,15.481z"/>
				<path style="fill:#DD6F47;" d="M88.99,27.737c-2.871-9.227-7.365-11.69-8.45-12.164c-0.083-0.028-0.157-0.061-0.234-0.093
					c0-0.001-0.008-0.003-0.008-0.003s0.008,0.002,0.008,0.003c-0.075-0.031-0.155-0.06-0.222-0.096
					c-0.811-0.214-1.901-0.463-2.725-0.621c-0.561-0.108-1.318-0.186-1.884-0.263c-0.849-0.116-1.995-0.143-2.853-0.141
					c-1.207,0.003-2.816,0.148-4.011,0.321c-1.015,0.146-2.343,0.481-3.334,0.741c-1.753,0.459-4.445,1.6-6.263,2.654
					c-3.277,1.901-5.045,3.611-5.799,4.341l-2.262,14.93C50.955,37.346,69.613,21.646,88.99,27.737z"/>
			</g>
			<path style="fill:#CE6746;" d="M98.975,56.883c0.996-1.953,2.21-4.413,2.958-8.689c0.353-2.02,0.337-4.083,0.33-4.965
				c-0.01-1.2-0.228-2.792-0.399-3.979c-0.147-1.015-0.513-2.341-0.757-3.165c-0.564-1.225-3.128-5.551-12.116-8.348
				c6.152,19.572-9.623,38.053-9.623,38.053l-0.008,0.006l0.053,0.018l14.699-2.274C97.013,60.652,98.782,57.26,98.975,56.883z"/>
		</g>
		<g>
			<path style="fill:#E58F70;" d="M50.955,37.346l10.843,17.499l27.126-27.126C69.571,21.685,50.955,37.346,50.955,37.346z"/>
			<path style="fill:#DD7C5E;" d="M88.99,27.737c-0.022-0.007-0.045-0.012-0.066-0.019L61.798,54.845l17.562,10.952l0.008-0.006
				C79.367,65.79,95.143,47.31,88.99,27.737z"/>
		</g>
		<g>
			<path style="fill:#7C7D77;" d="M87.285,26.617c0.574-0.528,1.23-0.697,1.948-0.504c0.279,0.079,0.507,0.342,0.615,0.772
				c-0.108-0.431-0.336-0.694-0.615-0.772c0.174,0.054,0.534,0.167,0.886,0.524c0.179,0.181,0.273,0.349,0.33,0.449
				c0.005,0.008,0.109,0.193,0.173,0.436c0.086,0.329,0.206,1.176-0.52,1.928c-0.214,0.212-0.569,0.281-1.013,0.157
				c-0.874-0.246-1.759-1.149-1.978-2.018C87.005,27.162,87.078,26.823,87.285,26.617z"/>
		</g>
	</g>
</g>
</svg>
