<?xml version="1.0" encoding="utf-8"?>
<!-- Generator: Adobe Illustrator 21.1.0, SVG Export Plug-In . SVG Version: 6.00 Build 0)  -->
<svg version="1.1" id="Layer_1" xmlns="http://www.w3.org/2000/svg" xmlns:xlink="http://www.w3.org/1999/xlink" x="0px" y="0px"
	 viewBox="0 0 400 400" style="enable-background:new 0 0 400 400;" xml:space="preserve">
<style type="text/css">
	.st0{fill:#1A1A1A;}
</style>
<g id="Layer_x0020_1">
	<path class="st0" d="M64,279.4l7.8,3.1l2,0.6l1.9-11.6l1.2-22.4l-3.9-9.4l-1.7,2.5l-5.5,15.6l-1.7,20.4l0,0
		C64.1,278.1,63.9,279.4,64,279.4z M394.1,168.5l-5.4,11.7l0,0l-0.5,1.2l-0.3,5.3l-17.3,1.7l-2.2,0.4l0,0l-7.8,1.6l0,0l-16,3.2
		l-18.6,1.6l-17.2,0.4l-12.8,3.9l-5.4,2l-4.9,29.8l-2.7,25.6l3.4,22l2.1,4.9l0,0l0.2,0.5l8,2l0,0l8.9,2.2l2.2,8.7l-17.9,1.7
		l-26.8-5.4l-5.3-11.5l-4.6-5.5l-0.5,2.6l2.1,7.6l0,0l0.7,2.5l7.7,4.4l7.6,5.7l-0.3,5.3l-1.4-0.1l0,0l-7.8-0.4l-19.1-0.4l-26.9-2.8
		l-1-6l2.9-4.5l-5-4.9l-5.5-8.9l-1.4-10l-4.8-20.7l-39.9,5.8l-7.5-0.3l-4.6,2.9l0.2-3.1l-8.4-0.3l-2.5,1.1l-4.7,0.7l1.4-2l-2.8-0.1
		l-5.8,1.7l-0.1-2.5l-5.2-1l-2.2,0.6l-1.4,26.2l9.3,3.4l0,0l5.6,2l4.7,11.5l-13.2-0.7l-27.1,0.5L85.9,291l-2.4-0.3l2.6,6.5
		l-11.3,0.7l-17.7-2.3L34.6,297l-19-3.7l-3.7-4.2l1.9-3.9l0,0l2.5-5.1l1.1-44.2l0.4-20.4L12,190.8l6.5-26.3l-12,6.2l-0.8-9.9
		l4.2-16.3l8.5-10.8l12.8-5.3l5.6-0.1l3.2-3.4l24.6-14.5l29.8-13.6l24.5-1.3l33.3,7.7l24,8.6l24.2,4.6l22-4.1l18-3.7l11.2-0.1
		l22.1,5.8l38.8,15.3l21.4,5.5l1.4-2.4l4.3,2.2l1.5,1.9l12.5,2.9l6.1,5.5l0,0l0.1,0.1l6.8,8.9l16.8,6.2l6.8,2.4l0,0l4.3,1.5
		L394.1,168.5L394.1,168.5z"/>
</g>
</svg>
