<?xml version="1.0" encoding="utf-8"?>
<!-- Generator: Adobe Illustrator 21.1.0, SVG Export Plug-In . SVG Version: 6.00 Build 0)  -->
<svg version="1.1" id="Layer_1" xmlns="http://www.w3.org/2000/svg" xmlns:xlink="http://www.w3.org/1999/xlink" x="0px" y="0px"
	 viewBox="0 0 400 400" style="enable-background:new 0 0 400 400;" xml:space="preserve">
<style type="text/css">
	.st0{fill:#1A1A1A;}
</style>
<g id="Layer_x0020_1">
	<polygon class="st0" points="386.2,271.2 388,269.2 380.4,259.4 379.7,258.8 380.3,254.2 366.6,240.5 363,240.2 362.9,238.1 
		348.1,235.2 334.2,238.5 322.4,244.3 322.4,244.3 319.3,240.2 302.1,243.2 279.2,251 275.8,251.9 292.5,241.4 296.3,231.6 
		296.3,227.9 309.7,226.6 323.6,224.8 326.4,218.1 335.1,216.7 342.5,208.4 352,195 351.2,190.7 349.9,189.2 351.7,188 353.3,184.1 
		352.4,182.6 355.2,182.6 364.8,145.3 363.4,143.6 362.9,143.7 362.5,136 358.5,136.3 358.5,144.1 355.8,144.4 348.8,165.3 
		346.2,177.6 344.6,176.9 343,178.3 341.9,182.6 334,183.2 326.3,196.2 319.3,208.3 314.5,205.6 311.5,207 302.8,213.1 296.3,214.6 
		296.3,208.2 295.3,206.8 307.2,203.7 319.2,185.7 322.4,174.9 321.5,165 318.8,162.3 316.8,161.7 318.7,156.8 310.8,141.4 
		284.2,118.3 271.3,109.1 268.6,108.5 267.9,109.4 236.1,83.1 217.2,75.4 188.5,80 189.5,85.5 197.7,85.6 214.5,90.3 232.8,102.9 
		245.3,116.2 245.6,121.6 237.4,118.3 223.5,117.5 207.9,119.6 198.3,123.3 198.6,125.7 199.2,125.9 199.2,125.9 214.5,131.2 
		236.1,141.7 263.9,159.6 277.3,169.4 281.3,170.1 283.6,179.3 284.3,187.8 282.5,190.6 268.5,172.8 250,165.2 222.2,158.6 
		213.5,155.4 205.4,159.7 196.1,152.1 188.5,160.3 183.6,155.4 177,155.4 170.5,160.3 159.1,159.7 136.7,168.4 114.4,183 
		111.4,179.4 111.3,177.2 111.3,177.2 110.9,171 111.9,161.5 115.8,160.3 127.7,148.7 152.6,127 172.5,113.6 186.9,106.2 
		186.9,106.2 187.5,105.9 187.4,103.4 177.4,101.2 161.7,101.2 148.1,104 140.4,108.5 139.9,103.1 150.4,88.1 166.8,73.1 
		182.8,66.1 190.8,64.8 190.9,61.7 190.9,61.7 191,59.2 162,58.7 144.3,69 116.6,99.5 115.8,98.7 113.2,99.7 101.7,110.7 
		78.7,137.3 73,153.6 75.6,158.2 73.6,159.1 71.4,162.2 71.9,172 76.6,182.3 91,198.5 105.1,200.1 101.8,209.3 103.7,219.8 
		96.7,216.7 89.3,209 86.6,207.1 81.4,208.8 76.8,195.7 71.6,181.5 63.9,179.3 63.7,175 62.3,173.3 60.7,173.7 60.5,161.1 
		57.4,139.3 54.8,138.5 56.3,130.8 52.5,129.8 50.7,137.3 50.1,137.1 48.5,138.5 50.9,176.9 53.6,177.4 52.5,178.8 53.4,182.9 
		54.9,184.4 53.4,185.6 51.7,189.7 58.5,204.7 64.3,214.2 72.6,217.1 74.1,224.3 87.4,228.6 100.5,232.4 105.9,232.4 106.8,237.6 
		117.7,251.2 94.1,246.3 76.6,245.4 74.1,249.9 74.1,249.9 61.6,245.5 47.3,244 33.1,248.7 33.2,250.8 29.7,251.6 17.8,266.9 
		19,271.4 18.3,272 12,282.7 14,284.5 14,284.5 13.7,289.1 16.2,296.4 18,295.2 17.9,286.8 19.3,287.2 26.5,276.6 27.3,277.1 
		36.1,272.6 44.5,263.4 44.7,263.5 47.6,263.2 47.6,263.2 50.4,262.9 68.2,260 74,259.5 73.9,264.9 77.5,266.1 121.3,268.5 
		144.5,263.6 150.2,266.4 139.8,271.1 122.8,271.3 91.6,273 81.5,273.7 81.3,276.3 80.6,276.2 66.3,280.3 61.8,294.2 63.2,295.2 
		55.6,312.3 58,312.9 57.7,313.4 64.4,321.3 82.5,330.2 83.4,328.5 91.3,332.9 92.2,330.9 84.9,325.9 86,323.9 68.8,311.8 
		74.8,300.9 76.7,301.2 85,298.5 91.9,290.4 93.9,291.4 96.1,290.5 96.1,290.5 99.7,289.2 121.7,284.9 145,282.3 153.8,277.1 
		157.9,273.8 160.8,278.4 152.5,282.9 135.7,285.5 112.3,288.3 112.3,288.3 109.4,288.6 108.7,290.5 109.2,291.4 103.7,295.4 
		100,303.5 101.2,304.1 100.2,308.4 106.2,320.1 116.7,329.5 118.6,329.2 125.5,337 128.4,334.9 122.3,327.4 124.2,325 112.4,308.1 
		116.1,304 116.1,304.1 120.5,303.9 128.8,300.6 157.8,291.4 166,287.1 168.9,292.1 179.2,292.6 206.4,292.6 228.2,293.2 
		233.5,287.1 239.6,291.5 267,304.8 274.3,309.1 274.3,309.1 274.8,309.4 279,310.2 279.1,310 282.1,314.6 268.1,329.7 269.6,332.3 
		262.4,338.9 265,341.3 273,334.7 274.8,335.2 286.5,327.4 294.1,316.7 293.8,312.3 295.1,311.9 292.6,303.4 287.8,298.6 
		288.3,297.8 287.9,295.8 262.3,288.9 246.1,283.9 239.4,278.8 241.6,275.4 248.1,279.4 257.5,283.3 281,282.4 303.4,283.5 
		309.4,284.9 311.3,283.6 319.3,290.7 327.8,292.2 329.7,291.6 337.1,301.6 321.8,315.9 323.2,317.8 316.8,323.8 317.9,325.7 
		325,320.2 326.2,321.7 342.8,310.3 348.4,301.6 348,301.1 350.3,300.1 340.3,284.3 341.5,283.1 335.2,270 320.4,268 319.7,268.2 
		319.2,265.6 309.1,266.4 277.9,269.2 261.1,271.4 250.8,268.4 253.5,266.6 277.8,268.6 319.3,261.1 319.3,261.1 321,260.8 
		324.4,259.2 323.6,253.9 329.4,253.6 347.5,254.4 350.3,254.3 350.3,254.3 353.2,254.2 353.4,254.1 362.9,262.2 372.1,265.5 
		372.9,264.9 381.3,274.6 382.7,274 383.6,282.4 385.6,283.3 387.2,275.8 386.3,271.2 	"/>
</g>
</svg>
