<?xml version="1.0" encoding="utf-8"?>
<!-- Generator: Adobe Illustrator 23.0.3, SVG Export Plug-In . SVG Version: 6.00 Build 0)  -->
<svg version="1.1" id="Icons" xmlns="http://www.w3.org/2000/svg" xmlns:xlink="http://www.w3.org/1999/xlink" x="0px" y="0px"
	 viewBox="0 0 32 32" style="enable-background:new 0 0 32 32;" xml:space="preserve">
<style type="text/css">
	.st0{fill:none;stroke:#000000;stroke-width:2;stroke-linecap:round;stroke-linejoin:round;stroke-miterlimit:10;}
</style>
<g>
	<path d="M16,15c3.9,0,7-3.1,7-7s-3.1-7-7-7S9,4.1,9,8S12.1,15,16,15z M17.3,6.3C17.6,6,18,5.9,18.4,6.1c0.1,0.1,0.2,0.1,0.3,0.2
		C18.9,6.5,19,6.7,19,7c0,0.3-0.1,0.5-0.3,0.7c-0.1,0.1-0.2,0.2-0.3,0.2C18.3,8,18.1,8,18,8c-0.3,0-0.5-0.1-0.7-0.3
		C17.1,7.5,17,7.3,17,7C17,6.7,17.1,6.5,17.3,6.3z M13.1,6.6c0.1-0.1,0.1-0.2,0.2-0.3c0.1-0.1,0.2-0.2,0.3-0.2
		c0.2-0.1,0.5-0.1,0.8,0c0.1,0.1,0.2,0.1,0.3,0.2C14.9,6.5,15,6.7,15,7c0,0.1,0,0.3-0.1,0.4c-0.1,0.1-0.1,0.2-0.2,0.3
		c-0.1,0.1-0.2,0.2-0.3,0.2C14.3,8,14.1,8,14,8c-0.3,0-0.5-0.1-0.7-0.3c-0.1-0.1-0.2-0.2-0.2-0.3C13,7.3,13,7.1,13,7
		C13,6.9,13,6.7,13.1,6.6z M13.1,9.3c0.4-0.4,1-0.3,1.4,0.1c0.8,0.9,2.2,0.9,2.9,0c0.4-0.4,1-0.4,1.4-0.1c0.4,0.4,0.4,1,0.1,1.4
		c-0.8,0.8-1.8,1.3-3,1.3s-2.2-0.5-3-1.3C12.7,10.3,12.7,9.6,13.1,9.3z"/>
	<path d="M30.6,10.2c-0.4-0.3-1.1-0.2-1.4,0.2l-2.8,3.8L24,15.1c-0.3-0.5-0.7-0.9-1.2-1.3c-1.7,2-4.1,3.2-6.9,3.2
		c-2.8,0-5.2-1.3-6.9-3.2c-0.4,0.4-0.8,0.9-1.2,1.3l-2.3-0.9l-2.8-3.8c-0.3-0.4-1-0.5-1.4-0.2c-0.4,0.3-0.5,1-0.2,1.4l3,4
		c0.1,0.1,0.3,0.3,0.4,0.3l2.3,0.9C6.3,18.1,6,19.5,6,21c0,5.5,4.5,10,10,10s10-4.5,10-10c0-1.5-0.3-2.9-0.9-4.2l2.3-0.9
		c0.2-0.1,0.3-0.2,0.4-0.3l3-4C31.1,11.2,31,10.5,30.6,10.2z M16.7,25.7C16.5,25.9,16.3,26,16,26c-0.3,0-0.5-0.1-0.7-0.3
		C15.1,25.5,15,25.3,15,25c0-0.3,0.1-0.5,0.3-0.7c0.4-0.4,1-0.4,1.4,0c0.2,0.2,0.3,0.4,0.3,0.7C17,25.3,16.9,25.5,16.7,25.7z
		 M16.7,21.7C16.5,21.9,16.3,22,16,22c-0.3,0-0.5-0.1-0.7-0.3C15.1,21.5,15,21.3,15,21c0-0.3,0.1-0.5,0.3-0.7
		c0.2-0.2,0.6-0.3,0.9-0.3c0.1,0,0.1,0,0.2,0.1c0.1,0,0.1,0.1,0.2,0.1c0,0,0.1,0.1,0.1,0.1c0.2,0.2,0.3,0.4,0.3,0.7
		C17,21.3,16.9,21.5,16.7,21.7z"/>
</g>
</svg>
