<?xml version="1.0" encoding="utf-8"?>
<!-- Generator: Adobe Illustrator 18.0.0, SVG Export Plug-In . SVG Version: 6.00 Build 0)  -->
<!DOCTYPE svg PUBLIC "-//W3C//DTD SVG 1.1//EN" "http://www.w3.org/Graphics/SVG/1.1/DTD/svg11.dtd">
<svg version="1.1" id="Layer_1" xmlns="http://www.w3.org/2000/svg" xmlns:xlink="http://www.w3.org/1999/xlink" x="0px" y="0px"
	 viewBox="0 0 106.7 94.3" enable-background="new 0 0 106.7 94.3" xml:space="preserve">
<g>
	<rect x="45.9" y="71.3" fill="#4A5779" width="16" height="2.2"/>
	<ellipse fill="#4A5779" cx="38.3" cy="72.8" rx="8.3" ry="4.6"/>
	<ellipse fill="#08AABA" cx="38.3" cy="71.3" rx="8.3" ry="4.6"/>
	
		<rect x="27.5" y="60.5" transform="matrix(0.9874 0.1582 -0.1582 0.9874 10.3993 -6.0989)" fill="#4A5779" width="31.9" height="3.5"/>
	<path fill="#08AABA" d="M65.8,68.3c-1.5-1.4-2.9-2.7-4.4-4.1c8.7-9.2,8.7-23.6,0-32.8c1.5-1.4,2.9-2.7,4.4-4.1
		C76.6,38.8,76.6,56.8,65.8,68.3z"/>
	<g>
		<g>
			
				<rect x="48.4" y="3.4" transform="matrix(0.9519 0.3064 -0.3064 0.9519 10.339 -14.9266)" fill="#4A5779" width="8.6" height="44.1"/>
			
				<rect x="44.8" y="17.9" transform="matrix(0.9519 0.3064 -0.3064 0.9519 12.117 -14.0294)" fill="#08AABA" width="12" height="27.3"/>
			
				<rect x="42.5" y="46.3" transform="matrix(0.9519 0.3064 -0.3064 0.9519 17.3763 -11.4033)" fill="#DDD9C8" width="5.1" height="6.6"/>
		</g>
		<path fill="#4A5779" d="M65.9,26.4l-1.5-0.5l-5-1.6l-2.8,8.6l-2.8,8.6l0.1,0c2.8,0.9,5.7-0.6,6.6-3.4l1.1-3.6l1.5,0.5
			c2.3,0.8,4.8-0.5,5.6-2.9l0-0.1C69.5,29.6,68.2,27.1,65.9,26.4z"/>
	</g>
	<circle fill="#F1EEDB" cx="64.5" cy="30.5" r="2.5"/>
	<path fill="#4A5779" d="M72,84.5H50.8l0-15.4c0-4.4,3.6-8,8-8h1.5c2.9,0,5.5,1.8,6.6,4.5L72,84.5z"/>
	<circle fill="#F1EEDB" cx="59.6" cy="66.7" r="2.7"/>
	<path fill="#08AABA" d="M21.5,91h59v-3.6c0-1.6-1.3-2.8-2.8-2.8H24.4c-1.6,0-2.8,1.3-2.8,2.8V91z"/>
	<ellipse fill="#F1EEDB" cx="38.3" cy="71.3" rx="6.9" ry="3.5"/>
	<path opacity="0.1" fill="#1D1D1B" d="M77.6,84.5H72l-4.8-18c6.3-7.7,8.1-17.9,5.5-27c-0.9,5-2.3,10-4.3,15.1
		C64.1,65.1,58,74,50.8,80.5l0,4.1h-5c-4,2.9-8.2,5.1-12.4,6.4h47.1v-3.6C80.5,85.8,79.2,84.5,77.6,84.5z"/>
	<path opacity="0.1" fill="#1D1D1B" d="M65.9,26.4l-1.5-0.5l-4.1-1.3C54.4,32.5,47.6,38.7,41,42.8l1.4,0.5l-0.6,1.9l1.8,0.6l-2,6.3
		l4.8,1.6l2-6.3l1.6,0.5l0.6-1.9l1.6,0.5l1.6-5l0.1,0c2.8,0.9,5.7-0.6,6.6-3.4l1.1-3.6l1.5,0.5c2.3,0.8,4.8-0.5,5.6-2.9l0-0.1
		C69.5,29.6,68.2,27.1,65.9,26.4z"/>
</g>
</svg>
