<?xml version="1.0" encoding="utf-8"?>
<!-- Generator: Adobe Illustrator 18.0.0, SVG Export Plug-In . SVG Version: 6.00 Build 0)  -->
<!DOCTYPE svg PUBLIC "-//W3C//DTD SVG 1.1//EN" "http://www.w3.org/Graphics/SVG/1.1/DTD/svg11.dtd">
<svg version="1.1" id="Layer_1" xmlns="http://www.w3.org/2000/svg" xmlns:xlink="http://www.w3.org/1999/xlink" x="0px" y="0px"
	 viewBox="0 0 102.3 73.5" enable-background="new 0 0 102.3 73.5" xml:space="preserve">
<g>
	
		<radialGradient id="SVGID_1_" cx="51.1627" cy="49742.0508" r="48.6672" gradientTransform="matrix(1 0 0 0.1419 0 -6995.4458)" gradientUnits="userSpaceOnUse">
		<stop  offset="0" style="stop-color:#C0BFBF"/>
		<stop  offset="4.587770e-002" style="stop-color:#C4C3C2"/>
		<stop  offset="0.4427" style="stop-color:#E1E0DF"/>
		<stop  offset="0.7749" style="stop-color:#F5F4F3"/>
		<stop  offset="1" style="stop-color:#FFFFFF"/>
	</radialGradient>
	<ellipse fill="url(#SVGID_1_)" cx="51.2" cy="63" rx="47.6" ry="7.1"/>
	<g>
		<g>
			<path fill="#F49A25" d="M60.4,31.8c-0.1,0-0.2,0-0.3,0l0.1-4.2c0.4,0,10.9,0.1,13.2-8.3c0.8-2.9,0.7-5-0.2-6
				c-1.3-1.4-4.4-1-5.4-0.7l-1-4.1c0.6-0.2,6.2-1.5,9.4,1.9c2.1,2.2,2.5,5.5,1.3,10.1C74.8,29.5,65.3,31.8,60.4,31.8z"/>
		</g>
		<g>
			<path fill="#F49A25" d="M39.8,31.8c-5,0-14.5-2.3-17-11.4c-1.3-4.5-0.8-7.9,1.3-10.1c3.2-3.3,8.8-2,9.4-1.9l-1,4.1
				c-1-0.2-4.1-0.6-5.4,0.7c-1,1-1,3.1-0.2,6c2.4,8.4,13.1,8.4,13.2,8.3l0.1,4.2C40,31.8,39.9,31.8,39.8,31.8z"/>
		</g>
		<path fill="#FEBE45" d="M68.2,5H50H31.8c0,0,0,23.5,12.6,32.8l1.1,10.4h8.9l1.1-10.4C68.2,28.1,68.2,5,68.2,5z"/>
		<g>
			<path fill="#F49A25" d="M50,42.4c-8,0-14.5,3.3-14.5,7.4h29.1C64.5,45.7,58,42.4,50,42.4z"/>
		</g>
		<path fill="#50505C" d="M31.8,56.3c0,0,0-1.9,0-3.8c0-1.8,2-3.3,4.5-3.3h27.4c2.5,0,4.5,1.5,4.5,3.3v3.8H31.8z"/>
		<path fill="#3E3E3E" d="M28.7,63c0,0,0-1.6,0-3.5c0-2,2-3.5,4.5-3.5h33.5c2.5,0,4.5,1.6,4.5,3.5V63H28.7z"/>
		<path fill="#F49A25" d="M46.3,26.3c0.1-0.7-0.2-1.6-0.7-2.1l-2.7-2.6l3.7-0.5c0.7-0.1,1.5-0.6,1.8-1.3l1.7-3.4l1.7,3.4
			c0.3,0.6,1.1,1.2,1.8,1.3l3.7,0.5l-2.7,2.6c-0.5,0.5-0.8,1.4-0.7,2.1l0.6,3.7l-3.3-1.7c-0.3-0.2-0.7-0.2-1.1-0.2s-0.8,0.1-1.1,0.2
			L45.7,30L46.3,26.3z"/>
		<path fill="#272626" d="M58.2,5H50h-7.6H31.8c0,0,0,13.2,5.3,23.8C48.6,26.7,57.5,16.9,58.2,5z"/>
	</g>
</g>
</svg>
