<?xml version="1.0" encoding="utf-8"?>
<!-- Generator: Adobe Illustrator 18.0.0, SVG Export Plug-In . SVG Version: 6.00 Build 0)  -->
<!DOCTYPE svg PUBLIC "-//W3C//DTD SVG 1.1//EN" "http://www.w3.org/Graphics/SVG/1.1/DTD/svg11.dtd">
<svg version="1.1" id="Layer_1" xmlns="http://www.w3.org/2000/svg" xmlns:xlink="http://www.w3.org/1999/xlink" x="0px" y="0px"
	 viewBox="0 0 88.7 94.3" enable-background="new 0 0 88.7 94.3" xml:space="preserve">
<g>
	<path fill="#DDD9C8" d="M79.7,82.4h-69V56.7h69V82.4z M14.3,78.9h62V60.2h-62V78.9z"/>
	<g>
		<g>
			<rect x="19.5" y="19.4" fill="#354267" width="10.8" height="10.3"/>
			<path fill="#4A5779" d="M30.8,26H19c-0.5,0-0.9-0.4-0.9-0.9v-4.7c0-0.5,0.4-0.9,0.9-0.9h11.8c0.5,0,0.9,0.4,0.9,0.9v4.7
				C31.7,25.6,31.3,26,30.8,26z"/>
			<path fill="#F1EEDB" d="M25,79.2h-0.1c-3.7,0-6.8-3-6.8-6.8v-45h13.7v45C31.7,76.2,28.7,79.2,25,79.2z"/>
			<path fill="#DE4A37" d="M19.4,44.7v27.7c0,3,2.4,5.5,5.5,5.5H25c3,0,5.5-2.4,5.5-5.5V44.7H19.4z"/>
			<path opacity="0.15" fill="#1D1D1B" d="M25,79.2h-0.1c-3.7,0-6.8-3-6.8-6.8c9.6,1,13.7-15.6,13.7-45v45
				C31.7,76.2,28.7,79.2,25,79.2z"/>
			<path opacity="0.3" fill="#FFFFFF" d="M22.9,32.2h-2.6V72c0,1.9,1.1,3.6,2.6,4.4V32.2z"/>
		</g>
		<g>
			<rect x="39.9" y="19.4" fill="#354267" width="10.8" height="10.3"/>
			<path fill="#4A5779" d="M51.2,26H39.3c-0.5,0-0.9-0.4-0.9-0.9v-4.7c0-0.5,0.4-0.9,0.9-0.9h11.8c0.5,0,0.9,0.4,0.9,0.9v4.7
				C52.1,25.6,51.7,26,51.2,26z"/>
			<path fill="#F1EEDB" d="M45.3,79.2h-0.1c-3.7,0-6.8-3-6.8-6.8v-45h13.7v45C52.1,76.2,49.1,79.2,45.3,79.2z"/>
			<path fill="#DE4A37" d="M39.7,47v25.4c0,3,2.4,5.5,5.5,5.5h0.1c3,0,5.5-2.4,5.5-5.5V47H39.7z"/>
			<path opacity="0.15" fill="#1D1D1B" d="M45.3,79.2h-0.1c-3.7,0-6.8-3-6.8-6.8c9.6,1,13.7-15.6,13.7-45v45
				C52.1,76.2,49.1,79.2,45.3,79.2z"/>
			<path opacity="0.3" fill="#FFFFFF" d="M43.3,32.2h-2.6V72c0,1.9,1.1,3.6,2.6,4.4V32.2z"/>
		</g>
		<g>
			<rect x="60.2" y="19.4" fill="#354267" width="10.8" height="10.3"/>
			<path fill="#4A5779" d="M71.5,26H59.7c-0.5,0-0.9-0.4-0.9-0.9v-4.7c0-0.5,0.4-0.9,0.9-0.9h11.8c0.5,0,0.9,0.4,0.9,0.9v4.7
				C72.4,25.6,72,26,71.5,26z"/>
			<path fill="#F1EEDB" d="M65.7,79.2h-0.1c-3.7,0-6.8-3-6.8-6.8v-45h13.7v45C72.4,76.2,69.4,79.2,65.7,79.2z"/>
			<path fill="#DE4A37" d="M60.1,39.9v32.6c0,3,2.4,5.5,5.5,5.5h0.1c3,0,5.5-2.4,5.5-5.5V39.9H60.1z"/>
			<path opacity="0.15" fill="#1D1D1B" d="M65.7,79.2h-0.1c-3.7,0-6.8-3-6.8-6.8c9.6,1,13.7-15.6,13.7-45v45
				C72.4,76.2,69.4,79.2,65.7,79.2z"/>
			<path opacity="0.3" fill="#FFFFFF" d="M63.6,32.2H61V72c0,1.9,1.1,3.6,2.6,4.4V32.2z"/>
		</g>
	</g>
	<path fill="#DDD9C8" d="M79.7,82.4h-69V56.7h69V82.4z M14.3,78.9h62V60.2h-62V78.9z"/>
</g>
</svg>
